# xmcd
#
# Track frame offsets: 
#        150
#        11913
#        26720
#        43618
#        60769
#        79371
#        95034
#        107640
#        122637
#        142205
#        162813
#        179169
#
# Disc length: 2515 seconds
#
# Revision: 1
# Processed by: cddbd v1.5.2PL0 Copyright (c) Steve Scherf et al.
# Submitted via: ExactAudioCopy v1.2
#
DISCID=a609d10c
DTITLE=Mandolin Orange - Quiet Little Room
DYEAR=2010
DGENRE=Country
TTITLE0=These Old Wheels
TTITLE1=Your Cryin' Eyes
TTITLE2=Wee Bird
TTITLE3=Easy
TTITLE4=Modern Man
TTITLE5=One More Down
TTITLE6=Night Owl
TTITLE7=A Thousand Amen
TTITLE8=Life On A String
TTITLE9=Lullaby
TTITLE10=Poor Boy Poor Me
TTITLE11=Quiet Little Turnaround
EXTD=YEAR: 2010
EXTT0=
EXTT1=
EXTT2=
EXTT3=
EXTT4=
EXTT5=
EXTT6=
EXTT7=
EXTT8=
EXTT9=
EXTT10=
EXTT11=
PLAYORDER=
